<?xml version="1.0" encoding="UTF-8"?>
<svg width="64" height="64" version="1.2" viewBox="0 0 169.3 169.3" xmlns="http://www.w3.org/2000/svg" xmlns:cc="http://creativecommons.org/ns#" xmlns:dc="http://purl.org/dc/elements/1.1/" xmlns:rdf="http://www.w3.org/1999/02/22-rdf-syntax-ns#">
 <metadata>
  <rdf:RDF>
   <cc:Work rdf:about="">
    <dc:title>FreeCAD SVG Export</dc:title>
    <dc:format>image/svg+xml</dc:format>
    <dc:type rdf:resource="http://purl.org/dc/dcmitype/StillImage"/>
   </cc:Work>
  </rdf:RDF>
 </metadata>
 <title>FreeCAD SVG Export</title>
 <desc>Drawing page: Page exported from FreeCAD document: Unnamed</desc>
 <path d="m34.02 28.15c-7.934 10.08-12.66 21.34-24 47.12-2.838 9.737-4.231 15.26-3.316 34.43 13.82 17.03 36.95 39.07 45.74 41.08 11.5 2.613 57.74-4.046 69.29-6.213 10.48-16.24 19.3-35.56 26.29-49.96 0.2691-12.29-0.035-18.23-0.0298-30.27-8.433-15.4-28.67-28.82-44.4-41.05-22.61-2.571-46.38 0.5351-69.58 4.861zm39.26 51.6c7.872-0.1108 7.213 0.5737 14.39 1.369 7.954 5.183 3.983 1.364 10.81 7.767-6.017 3.397-6.801 3.01-11.23 4.925-13.19 0.5688-9.622 0.3376-21.19-1.795-8.587-4.294-1.515 0.3337-10.18-7.199 16.38-5.27 7.538-3.484 17.39-5.068z" fill="#222e50" fill-rule="evenodd"/>
 <g transform="matrix(1.31 0 0 1.31 180.6 -182.5)" fill="none" stroke="#efefef" stroke-linecap="round">
  <path d="m-62.04 207.4a24.43 17.91 5.331 0 0 8.612-12.14" stroke-width="2.646"/>
  <path d="m-53.43 195.3a24.43 17.91 5.331 1 0-48.65-4.543" stroke-width="2.646"/>
  <path d="m-102.1 190.8a24.43 17.91 5.331 0 0 40.04 16.68" stroke-width="2.646"/>
  <g transform="matrix(11.77,1.098,1.098,-11.77,-1871,600.4)" stroke-width=".2239">
   <ellipse cx="147.8" cy="48.56" rx="2.875" ry="2.108" stroke="#efefef" stroke-linecap="round" stroke-width=".2239"/>
  </g>
  <path d="m-61.24 207a24.43 17.91 5.331 0 0-35.31-3.293" stroke-width="2.646"/>
  <path d="m-47.19 219.2a47.28 34.67 5.331 0 0 13.97-14.15" stroke-width="2.646"/>
  <path d="m-69.3 225.9a47.28 34.67 5.331 0 0 22.11-6.68" stroke-width="2.646"/>
  <path d="m-33.22 205a47.28 34.67 5.331 0 0-8.285-34.55" stroke-width="2.646"/>
  <path d="m-113.7 212.1a47.28 34.67 5.331 0 0 44.37 13.72" stroke-width="2.646"/>
  <path d="m-41.5 170.5a47.28 34.67 5.331 0 0-44.37-13.73" stroke-width="2.646"/>
  <path d="m-122 177.6a47.28 34.67 5.331 0 0 8.29 34.56" stroke-width="2.646"/>
  <path d="m-85.88 156.8a47.28 34.67 5.331 0 0-36.08 20.83" stroke-width="2.646"/>
  <path d="m-33.22 205-0.6303 1.266-0.6351 1.281-0.6366 1.31-0.6429 1.327-0.6429 1.366-0.654 1.387-0.6666 1.408-0.6697 1.452-0.6792 1.484-0.6871 1.53-0.7013 1.565-0.717 1.601-0.7296 1.65-0.7438 1.698" stroke-width="2.646"/>
  <path d="m-42.66 225.4-2.061-0.08-2.023-0.0623-1.989-0.0445-1.962-0.0445h-3.846l-1.889 0.0445-1.866 0.0489-3.704 0.1246-1.831 0.0934-1.828 0.1112-1.821 0.1423-1.822 0.1557" stroke-width="2.646"/>
  <path d="m-24.13 188.4-0.6934 1.177-0.6871 1.162-0.6729 1.166-0.665 1.161-0.6524 1.169-0.6556 1.157-0.6398 1.175-0.6398 1.174-0.6382 1.174-0.6288 1.196-0.6319 1.198-0.624 1.22-0.6319 1.224-0.6256 1.248" stroke-width="2.646"/>
  <path d="m-41.5 170.5 1.191 1.1 1.194 1.125 1.191 1.141 1.196 1.166 1.207 1.201 1.213 1.224 1.218 1.248 1.231 1.281 1.243 1.316 1.259 1.348 1.278 1.391 1.294 1.423 1.321 1.475 1.336 1.508" stroke-width="2.646"/>
  <path d="m-96.29 230.1-1.336-1.508-1.321-1.475-1.294-1.423-1.278-1.392-1.259-1.347-1.243-1.316-1.231-1.281-1.218-1.248-1.213-1.224-1.206-1.201-1.196-1.165-1.191-1.141-1.194-1.125-1.191-1.1" stroke-width="2.646"/>
  <path d="m-69.3 225.9-1.826 0.169-1.826 0.1957-1.839 0.2001-1.844 0.2313-1.861 0.2446-1.871 0.2757-1.894 0.2891-1.919 0.3024-1.935 0.338-1.971 0.3469-1.998 0.3736-2.034 0.3958-2.065 0.427-2.112 0.4403" stroke-width="2.646"/>
  <path d="m-59.23 156.2 1.387 0.9864 1.362 0.9882 1.338 0.9878 1.314 0.9882 1.292 0.9864 1.276 0.9958 1.261 1.006 1.242 1.002 1.234 1.021 1.215 1.018 1.213 1.046 1.202 1.053 1.198 1.069 1.194 1.084" stroke-width="2.646"/>
  <path d="m-85.88 156.8 1.822-0.1556 3.649-0.2491 1.837-0.0934 1.842-0.0801 1.856-0.0623 1.872-0.0489 1.889-0.0445h1.91l1.931 4e-3 3.951 0.089 2.023 0.0623 2.061 0.0801" stroke-width="2.646"/>
  <path d="m-131.4 197.9 0.7438-1.698 0.7296-1.65 0.717-1.601 0.7013-1.565 0.6934-1.519 0.6808-1.484 0.6697-1.452 0.6619-1.42 0.654-1.387 0.6477-1.356 0.6382-1.336 0.643-1.299 0.6303-1.292 0.6303-1.265" stroke-width="2.646"/>
  <path d="m-113.7 212.1-1.194-1.084-1.198-1.068-1.202-1.053-1.213-1.046-1.215-1.018-1.234-1.021-1.24-1.002-1.261-1.006-1.276-0.9958-1.292-0.9864-1.314-0.9882-1.338-0.9882-1.363-0.9878-1.387-0.9864" stroke-width="2.646"/>
  <path d="m-112.9 161 2.106-0.4505 2.072-0.4181 2.033-0.3958 1.998-0.3736 1.965-0.3558 1.94-0.3291 1.913-0.3113 1.894-0.2891 1.877-0.2624 1.855-0.2535 1.85-0.2224 1.834-0.2135 1.831-0.1823 1.82-0.1779" stroke-width="2.646"/>
  <path d="m-122 177.6 0.6335-1.239 0.6256-1.234 0.6303-1.211 0.6256-1.208 1.267-2.37 0.6398-1.174 0.6461-1.165 0.6492-1.166 0.6587-1.158 0.665-1.161 0.6729-1.167 0.6823-1.171 0.6981-1.168" stroke-width="2.646"/>
  <path d="m-44.92 249.6 0.6918-1.177 0.6886-1.162 0.6729-1.166 0.665-1.161 0.6603-1.16 0.6493-1.166 1.28-2.348 0.6382-1.174 0.6288-1.196 0.6319-1.198 0.6303-1.21 0.6256-1.234 0.6272-1.25" stroke-width="2.646"/>
  <path d="m-35.83 233 0.6303-1.266 0.6351-1.281 0.6366-1.31 0.6445-1.327 0.6477-1.357 0.654-1.387 0.6603-1.418 0.6697-1.452 0.6808-1.484 0.6871-1.529 0.7076-1.556 0.7123-1.612 0.7296-1.65 0.7438-1.699" stroke-width="2.646"/>
  <path d="m-26.4 212.7 2.265-24.28" stroke-width="2.646"/>
  <path d="m-44.92 249.6 2.265-24.28" stroke-width="2.646"/>
  <path d="m-98.56 254.4 2.06 0.0801 2.024 0.0623 1.994 0.0489h5.803l1.89-0.0445 1.871-0.0489 1.856-0.0623 1.843-0.08 1.831-0.0934 1.827-0.1112 1.822-0.1423 1.822-0.1557" stroke-width="2.646"/>
  <path d="m-71.92 253.9 1.825-0.169 1.832-0.1824 1.833-0.2135 1.844-0.2313 1.862-0.2446 1.871-0.2757 1.893-0.2891 1.92-0.3024 1.941-0.3291 1.965-0.3558 1.998-0.3736 2.033-0.3958 2.065-0.427 2.113-0.4403" stroke-width="2.646"/>
  <path d="m-98.56 254.4 2.265-24.28" stroke-width="2.646"/>
  <path d="m-133.7 222.2 1.341 1.517 1.316 1.465 1.298 1.434 1.273 1.38 1.264 1.358 1.245 1.314 1.231 1.281 1.218 1.248 1.213 1.224 1.201 1.19 1.201 1.176 1.191 1.141 1.194 1.125 1.19 1.102" stroke-width="2.646"/>
  <path d="m-116.3 240.1 1.194 1.084 1.198 1.069 1.204 1.051 1.209 1.035 1.22 1.029 1.234 1.021 1.24 1.004 1.256 0.9944 1.275 0.9958 1.298 0.9976 1.316 0.9882 1.332 0.9784 1.363 0.9882 1.387 0.9864" stroke-width="2.646"/>
  <path d="m-133.7 222.2 2.265-24.28" stroke-width="2.646"/>
 </g>
 <path d="m135.8 162.9 28.08-22.04s-8.877-20.24-18.99-28.24c-9.44-7.467-16.1-10.37-16.1-10.37l11.36-11.19-47.62-4.774 6.862 45.2 12.62-10.77s10.35 7.911 13.16 15.73c2.817 7.822 10.62 26.45 10.62 26.45z" fill="#346835" stroke="#ffda02" stroke-linejoin="round" stroke-width="4.276"/>
</svg>
